<svg xmlns="http://www.w3.org/2000/svg" xmlns:xlink="http://www.w3.org/1999/xlink" data-name="Ebene 2" preserveAspectRatio="xMidYMid meet" version="1.0" viewBox="-1.6 -1.4 504.3 739.3" zoomAndPan="magnify" style="fill: rgb(0, 0, 0);" original_string_length="7020" width="704.8877342337817px" height="1033.555626188025px">
    <g data-name="Ebene 1" id="__id1_shsjsq1pc">
        <path d="m131.76,37.7c-.78-3.01-1.96-6.08-2.34-9.23-1.7-14.01,6.87-23.64,18.2-26.94,10.03-2.92,19.69-1.11,29.24.94,11.61,2.49,22.83,6.55,33.61,11.66,5.22,2.47,10.08,5.46,13.99,9.82,7.68-3.54,14.66-3.81,20.81,2.13,1.16,1.12,2.39.8,3.36.25,2.49-1.41,4.82-3.11,7.24-4.64,13.6-8.64,28.14-15.21,43.87-18.79,8.4-1.91,16.91-3.29,25.64-1.51,12.26,2.49,17.07,8.64,16.41,21.58-.04.8.15,1.62.23,2.43,2.89,2.27,5.87,4.45,8.66,6.84,7.26,6.21,15.43,10.78,24.34,14.15,5.74,2.17,11.41,4.55,17.11,6.83,19.35,7.72,32.59,21.56,40.93,40.46,4,9.06,6.56,18.56,9.34,28,2.67,9.06,5.63,17.99,9.22,26.74,4.75,11.58,11.4,21.78,20.35,30.53,3.82,3.74,7.55,7.58,11.09,11.58,9.65,10.92,14.41,23.61,14.22,38.33-.14,10.78-2.01,21.25-4.05,31.74-1.88,9.68-3.47,19.39-4.62,29.2-1.71,14.61-.07,28.7,4.8,42.47,8,22.62,7.03,24.12,2.73,46.93-.91,4.84-1.91,9.66-2.82,14.51-2.62,13.99-2.15,27.78,2.34,41.39,1.67,5.06,3.04,10.23,4.49,15.37,2.51,8.91,2.55,17.83-.01,26.75-1.25,4.34-2.23,8.77-3.73,13.02-4.17,11.82-5.4,23.99-4.86,36.43.27,6.16.3,12.34.53,18.5.5,13.17-3.14,25.2-10.24,36.17-3.57,5.51-7.34,10.93-11.47,16.03-11.48,14.18-20.86,29.5-26.6,46.89-6.77,20.49-19.97,34.55-40.62,41.39-2.71.9-5.27,2.25-7.94,3.31-9.79,3.87-18,9.73-23.99,18.55-6.25,9.21-14.59,15.33-25.69,17.71-5.59,1.19-10.99,3.24-16.48,4.89-11.74,3.53-23.57,3.65-35.13-.3-11.76-4.03-23.23-4.07-34.94-.01-8.65,3-17.68,3.54-26.78,2.85-.41-.03-.82-.05-1.23-.09-14.87-1.62-29.5-.51-43.99,3.28-3.53.92-7.29,1.12-10.96,1.39-9.07.66-16.95-2.55-23.95-8.02-2.9-2.27-5.57-4.88-8.15-7.53-4.9-5.05-10.26-9.46-16.53-12.72-7.35-3.83-13.87-8.84-19.84-14.51-9.65-9.16-20.34-16.55-33.17-20.55-14.44-4.5-22.28-14.62-24.9-29.24-1.23-6.87-2.92-13.67-3.87-20.57-1.36-9.84-6.44-16.54-15.38-20.72-4.07-1.9-7.91-4.35-11.69-6.81-7.58-4.93-12.3-12.14-14.69-20.66-2.22-7.94-3.2-16.12-2.2-24.43,1.57-13.07,3.73-26.02,7.34-38.7.9-3.16,1.68-6.35,2.66-9.48,2.84-8.98,2.43-17.77-1.1-26.51-3.07-7.61-5.85-15.3-7.39-23.43-2.49-13.19-1.37-26.26,1.22-39.19,1.94-9.64,4.85-19.09,7.19-28.66.97-3.97,1.89-8,2.31-12.06.51-4.96-.14-9.84-2.69-14.31-1.22-2.14-2.14-4.45-3.41-6.56-8.85-14.65-9.41-30.25-5.5-46.42,2.72-11.24,7.13-21.82,12.15-32.18,2.33-4.8,4.54-9.65,6.84-14.46,3.61-7.56,3.52-14.93-.43-22.43-2.28-4.33-4.01-8.97-5.75-13.56-2.25-5.95-2.09-12.02-.68-18.2,3.02-13.23,9.68-24.36,19.24-33.79,3.8-3.75,8.04-7.04,12.03-10.59,2.45-2.19,5.01-4.3,7.15-6.77,3.41-3.94,4.96-8.46,3-13.68-1.15-3.07-2.18-6.18-3.32-9.26-1.28-3.46-2.91-6.83-3.89-10.37-3.2-11.65-2.25-22.91,4.68-33.05,3.23-4.72,6.94-9.24,11.09-13.17,17.26-16.36,37.06-28.38,60.39-34.07,1.98-.48,3.9-1.2,5.83-1.87.36-.12.63-.52,1.11-.93Zm175.08,166.75c-.87-3.87-5.11-16.18-11.04-22.86-4.76-5.36-6.75-12.15-6.69-19.41.04-4.11-.08-8.23.2-12.33.52-7.85-2.16-13.42-9.87-16.51-12.89-5.16-18.28-15.67-19.81-28.84-.91-7.8-.76-15.58-.49-23.4.17-4.91.05-9.86-.42-14.75-.65-6.68-4.45-11.33-10.43-14.24-3.68-1.79-7.71-3.07-11-5.41-5-3.55-7.79-4.13-12.5,1.43-2.35,2.77-5.62,4.79-8.55,7.04-7.5,5.75-10.93,13.04-9.17,22.6,2.33,12.67-1.78,23.5-10.02,32.99-3.77,4.35-7.69,8.56-11.5,12.88-4.85,5.5-7.45,11.6-5.93,19.19,1.5,7.49-1.43,13.71-6.67,18.94-2.91,2.9-5.98,5.65-8.95,8.49-3.28,3.15-6.06,6.64-8.05,10.8-2.38,4.96-2.19,9.51,1.35,13.78,1.57,1.89,4.37,4.47,4.85,5.55,1.11,2.51-1.69,3.7-2.84,3.64-3.43-.2-12.4-7.52-13.28-14.4-.76-5.97.73-11.38,3.79-16.47,3.67-6.1,8.78-10.87,14.18-15.31,5.49-4.51,8.35-9.8,7.24-17.14-1.4-9.24,2.42-16.86,8.29-23.63,3.5-4.04,7.17-7.93,10.69-11.95,5.95-6.8,9.47-14.6,7.9-23.75-2.64-15.44,3.29-32.52,17.19-36.55,15.13-4.39-20.07-7.13-31.15-3.25-8.21,2.88-16.52,4.78-25.16,5.38-6.97.48-13.94,1.04-20.91,1.45-4.52.26-8.92.76-13.34,1.99-21.47,5.95-39.86,17.09-55.74,32.51-2.92,2.84-5.47,6.15-7.75,9.54-5.04,7.52-7.07,15.73-4.1,24.59,1.95,5.82,4.15,11.57,6.4,17.28,4.58,11.65,2.54,21.76-6.92,30.11-4,3.53-8.24,6.8-12.31,10.26-9.26,7.88-16.38,17.26-20.06,29-2.43,7.75-2.38,15.37,1.19,22.79,1.42,2.96,3.01,5.83,4.53,8.74,4.66,8.95,4.96,18.09,1.05,27.34-2.07,4.91-4.23,9.8-6.62,14.57-4.24,8.46-7.97,17.13-10.79,26.15-5.16,16.45-4.88,32.31,5.38,47.14,7.53,10.88,8.43,22.82,4.8,35.36-2.4,8.28-4.52,16.63-6.78,24.95-5.57,20.45-5.69,40.56,3.39,60.2,1.37,2.96,2.11,6.21,3.2,9.3,2.13,6.01,2.2,12.1.65,18.21-1.31,5.17-2.83,10.29-4.25,15.44-1.96,7.12-4.46,14.14-5.74,21.38-2,11.28-4.27,22.55-1.96,34.24,1.98,10.02,6.91,17.38,15.82,22.17,3.25,1.75,6.55,3.38,9.81,5.1,9.23,4.88,15.36,12.17,17.46,22.57,1.3,6.44,3.15,12.82,3.8,19.31,1.43,14.36,8.65,23.26,22.59,27.34,9.11,2.67,17.68,7.1,24.52,13.73,16.01,15.51,37.52,23.79,52.57,40.47.27.3.65.5.98.75,5.86,4.45,12.45,6.17,19.69,5.04,4.86-.76,9.65-1.95,14.51-2.71,10.52-1.64,21-4.52,31.77-2.17,10.78,2.35,21.23.78,31.63-2.14,3.15-.89,6.29-1.83,9.46-2.67,6.9-1.84,13.78-1.86,20.67.15,2.75.8,5.59,1.36,8.31,2.25,10.91,3.57,21.81,3.28,32.74.17,5.12-1.46,10.19-3.08,15.33-4.47,7.43-2.01,13.33-6.04,17.71-12.43,7.95-11.6,19.06-19,32.04-23.94,4.97-1.89,9.83-4.1,14.66-6.32,9.75-4.47,16.68-11.79,21.04-21.53,2.01-4.49,3.95-9.04,5.59-13.67,5.15-14.47,12.68-27.55,22.27-39.52,4.36-5.45,8.43-11.14,12.59-16.75,8.17-11.02,11.69-23.36,10.61-37.05-.39-4.92-.48-9.86-.84-14.78-1.01-13.72.23-27.33,5.35-40.02,6.67-16.52,6.75-32.37.37-49.01-4.59-11.97-5.47-24.76-3.89-37.68,1-8.18,2.72-16.18,4.38-24.22,4.65-22.49,5.44-19.75-2.22-41.95-.53-1.55-1.12-3.08-1.57-4.66-3.89-13.58-5.5-27.28-3.46-41.43,1.46-10.17,3.03-20.29,5.11-30.36,2.24-10.86,4.12-21.79,3.59-33.01-.44-9.36-3.32-17.74-9.11-25.01-3.32-4.17-6.86-8.24-10.74-11.88-13.22-12.39-22.2-27.36-27.62-44.53-3.45-10.95-6.82-21.93-9.95-32.98-7.46-26.32-22.92-45.08-49.74-53.32-1.56-.48-3-1.35-4.55-1.87-11.8-3.99-22.51-9.87-31.97-18.03-8.24-7.11-10.48-6.76-18.41-1.57-4.52,2.96-9.34,5.36-14.56,6.42-10.5,2.13-21.13,3.04-31.88,1.75-6.53-.78-13.1-1.23-19.66-1.64-1.21-.07-5.11-.8-3.73,2.12,3.57,7.54,11.59,10.88,13.12,19.46,1.03,5.75.7,11.47.75,17.21.06,6.98-.04,13.98.33,20.95.51,9.7,4.53,17.38,13.76,21.65,1.11.51,2.2,1.09,3.29,1.65,7.76,4.05,11.21,10.49,10.71,19.18-.28,4.93-.33,9.86-.59,14.79-.34,6.48,1.75,12.1,5.79,17.08,1.3,1.6,2.56,3.23,3.98,4.71,6.93,7.46,6.17,19.45,5.49,21.83-2.34,8.2-4.26,4.51-5.19.4ZM223.16,32.67c-3.13-1.79-4.8-2.87-6.57-3.73-14-6.79-28.59-11.8-43.75-15.38-6.47-1.53-12.86-2.15-19.43-2.01-3.85.08-7.22,1.42-10.18,3.73-4.16,3.25-5.64,10.06-3.48,15.75,1.72,4.53,5.48,5.41,9.87,5.65,10.7.57,21.23.49,31.24-4.15,9.36-4.34,18.9-4.47,28.59-.95,3.8,1.38,7.66,3.05,13.71,1.08Zm32.64.41c6.98.78,12.86,1.61,18.76,2.06,6.94.52,13.91.94,20.87,1,12.83.12,23.94-4.59,33.73-12.69,3.49-2.89,3.33-6.82-.36-9.09-2.47-1.52-5.05-2.71-8.05-2.72-5.33-.03-10.61-.14-15.92.93-16.21,3.25-32.32,7.78-45.64,17.44-1.44,1.05-1.63,1.45-3.4,3.07Z" style="fill: rgb(130, 14, 3);"/>
    </g>
</svg>
