<svg xmlns="http://www.w3.org/2000/svg" xmlns:xlink="http://www.w3.org/1999/xlink" preserveAspectRatio="xMidYMid meet" version="1.0" viewBox="284.4 102.0 384.9 770.0" zoomAndPan="magnify" style="fill: rgb(130, 14, 3);" original_string_length="21397" width="129.0746213417493px" height="258.1492426834986px">
    <g id="__id3_shsjsq1pc">
        <path d="M 471.200 103.200 C 470.540 103.860, 470 105.531, 470 106.914 C 470 108.297, 468.239 112.819, 466.086 116.964 C 459.029 130.554, 456.297 151.267, 455.532 197 C 455.314 209.995, 454.657 219.169, 453.561 224.500 C 450.967 237.120, 450.574 251.658, 452.390 267.879 C 454.512 286.829, 454.541 326.290, 452.445 341.500 C 448.062 373.307, 446.451 411.205, 448.323 438.507 L 449.146 450.515 443.016 451.680 C 435.943 453.024, 432 455.250, 432 457.901 C 432 460.487, 433.908 461.802, 438.800 462.584 L 443 463.256 443.031 467.878 C 443.106 479.110, 446.669 497.352, 450.126 504.205 C 451.154 506.243, 453.711 509.714, 455.808 511.919 C 458.816 515.081, 459.416 516.293, 458.649 517.663 C 458.114 518.618, 457.642 521.947, 457.600 525.060 C 457.527 530.424, 457.370 530.767, 454.593 531.610 C 446.223 534.152, 444.403 549.934, 452.010 554.006 C 453.642 554.879, 453.999 556.099, 453.992 560.785 C 453.957 584.714, 445.317 619.569, 430.016 657.500 C 424.244 671.809, 421.543 681.101, 419.455 693.840 C 417.648 704.862, 417.659 710.929, 419.502 718.744 C 420.887 724.619, 427.922 740.707, 430.546 744 C 431.203 744.825, 432.962 747.722, 434.455 750.437 C 435.948 753.152, 439.531 758.552, 442.417 762.437 C 450.568 773.407, 451 774.200, 451 778.209 C 451 781.509, 450.599 782.142, 447.750 783.339 C 440.843 786.241, 436.021 793.038, 432.059 805.457 C 430.838 809.284, 428.524 814.075, 426.917 816.105 C 423.377 820.574, 420.052 827.662, 420.022 830.801 C 419.994 833.698, 425.863 836.419, 430.412 835.618 C 432.110 835.319, 442.615 834.989, 453.755 834.885 C 464.895 834.781, 476.370 834.350, 479.255 833.928 C 482.140 833.505, 494.979 832.973, 507.786 832.744 C 522.010 832.490, 531.476 831.924, 532.112 831.288 C 532.832 830.568, 532.216 827.454, 530.108 821.163 C 523.378 801.076, 515.746 790.560, 504 785.190 C 500.425 783.555, 496.968 782.057, 496.317 781.859 C 494.851 781.414, 502.775 761.681, 506.843 755.641 C 519.875 736.297, 524.775 717.396, 522.047 697 C 520.592 686.124, 519.573 682.954, 514.975 675 C 512.908 671.425, 509.741 664.900, 507.937 660.500 C 506.132 656.100, 504.284 652.072, 503.828 651.550 C 503.373 651.027, 503 649.655, 503 648.500 C 503 647.345, 502.617 645.973, 502.150 645.450 C 501.136 644.317, 494.491 623.402, 493.110 617 C 492.531 614.314, 492.432 606.050, 492.864 596.500 C 493.351 585.729, 493.177 576.578, 492.330 568.500 C 491.638 561.900, 491.055 556.235, 491.036 555.911 C 491.016 555.586, 492.107 554.817, 493.459 554.201 C 496.686 552.730, 500 546.099, 500 541.112 C 500 536.855, 497.123 533.571, 492.343 532.371 C 490.275 531.852, 490.036 531.260, 490.231 527.143 C 490.352 524.589, 490.126 520.925, 489.729 519 C 489.049 515.700, 489.222 515.386, 492.754 513.499 C 498.935 510.198, 502.361 503.898, 504.454 491.984 C 506.053 482.879, 506.118 480.637, 504.997 473.077 C 504.298 468.360, 503.134 463.536, 502.410 462.357 C 501.167 460.332, 501.334 460.153, 505.435 459.121 C 514.994 456.714, 510.837 451.625, 498.093 450.133 C 493.961 449.649, 492.625 449.080, 492.427 447.720 C 491.950 444.439, 490.974 420.700, 490.444 399.500 C 489.935 379.160, 489.771 375.404, 488.499 354.928 C 488.092 348.392, 488.411 342.048, 489.504 334.928 C 490.990 325.246, 491.548 305.760, 490.505 299.995 C 486.146 275.922, 484.940 246.254, 487.638 229.500 C 490.044 214.560, 490.554 180.229, 488.663 160.500 C 487.767 151.150, 486.652 138.915, 486.184 133.311 C 485.483 124.902, 484.770 121.976, 482.105 116.561 C 480.328 112.952, 478.453 110, 477.937 110 C 477.422 110, 477 109.346, 477 108.547 C 477 106.205, 474.777 102, 473.539 102 C 472.913 102, 471.860 102.540, 471.200 103.200 M 471.624 126.250 C 470.792 130.238, 469.869 140.925, 469.574 150 C 469.214 161.050, 468.212 171.124, 466.540 180.500 C 462.316 204.176, 461.485 218.542, 462.980 242 C 464.217 261.405, 464.614 323.896, 463.555 332.500 C 463.284 334.700, 462.812 343.925, 462.505 353 C 461.980 368.533, 461.460 377.163, 460.488 386.500 C 459.005 400.742, 457.018 425.499, 456.446 436.859 L 455.774 450.217 469.637 449.503 C 477.262 449.110, 483.774 448.498, 484.108 448.144 C 484.731 447.484, 484.381 443.467, 481.653 420 C 477.873 387.473, 477.219 364.783, 479.537 346.500 C 482.024 326.884, 482.085 316.837, 479.826 299 C 477.635 281.700, 476.624 227.518, 478.044 203.500 C 480.132 168.193, 480.246 155.649, 478.612 141.097 C 476.893 125.791, 475.485 119, 474.030 119 C 473.538 119, 472.456 122.263, 471.624 126.250 M 608.035 176.934 C 607.466 177.998, 607 180.158, 607 181.734 C 607 183.310, 606.598 185.028, 606.108 185.550 C 605.617 186.072, 603.314 192.125, 600.990 199 C 598.666 205.875, 596.180 212.850, 595.466 214.500 C 592.516 221.317, 590.095 229.985, 588.962 237.787 C 587.293 249.282, 588.272 305.756, 590.310 315.500 C 594.336 334.756, 594.693 349.272, 592.008 384.500 C 591.273 394.140, 591.023 407.854, 591.380 419 C 592.634 458.181, 593.073 508.218, 592.303 524.427 L 591.500 541.353 586.078 541.674 C 573.480 542.420, 570.706 550.425, 579.926 559.428 C 584.695 564.085, 585.395 566.966, 585.454 582.176 C 585.494 592.310, 585.764 594.182, 587.500 596.351 C 600.047 612.029, 599.505 611.067, 599.431 617.500 C 599.349 624.579, 595.982 632.573, 591.209 637.020 C 590.080 638.072, 588.876 639.815, 588.534 640.893 C 587.618 643.778, 590.511 649.820, 593.448 651.158 C 595.592 652.135, 596 652.990, 596 656.502 C 596 658.801, 596.502 664.409, 597.115 668.965 C 598.971 682.758, 595.544 690.895, 581.446 706.170 C 576.536 711.490, 569.869 723.685, 567.326 731.999 C 565.007 739.581, 564.790 741.578, 565.314 750.499 C 566.114 764.105, 571.243 779.049, 579.630 792.208 C 585.621 801.608, 586.633 803.846, 587.341 809.254 C 587.921 813.691, 587.696 814.359, 583.959 819.254 C 581.757 822.139, 578.759 826.975, 577.297 830 C 575.834 833.025, 572.469 837.836, 569.819 840.690 C 565.641 845.190, 565 846.442, 565 850.102 C 565 856.135, 568.864 862.328, 573.880 864.335 C 580.022 866.793, 641.087 867.897, 649.500 865.703 C 652.800 864.843, 657.615 863.605, 660.200 862.953 C 666.093 861.467, 668.102 859.275, 668.737 853.638 C 669.331 848.368, 666.424 842.272, 662.095 839.715 C 657.233 836.843, 648.410 827.460, 645.051 821.590 C 643.246 818.434, 640.695 815.363, 639.384 814.765 C 638.073 814.168, 637 813.255, 637 812.737 C 637 809.133, 644.425 790.987, 651.213 778 C 659.158 762.801, 659.314 762.364, 659.251 755.500 C 659.119 741.194, 655.554 731.007, 644.573 713.553 C 638.456 703.829, 634.015 691.423, 633.978 683.948 C 633.953 678.964, 638.365 653.771, 640.394 647.307 C 641.503 643.777, 641.487 642.651, 640.295 640.190 C 639.516 638.582, 637.794 636.771, 636.467 636.167 C 635.077 635.534, 633.804 633.888, 633.463 632.284 C 633.137 630.753, 631.961 627.025, 630.849 624 C 627.415 614.658, 627.379 614.909, 633.203 607.646 C 640.110 599.033, 645.199 588.989, 645.794 582.796 C 646.050 580.125, 645.693 575.264, 644.999 571.994 C 643.635 565.569, 643.906 564.692, 649.012 559 C 652.183 555.464, 654.138 550.399, 653.427 547.565 C 652.404 543.490, 649.577 541.816, 642.798 541.272 L 636.500 540.766 636.372 508.633 C 636.302 490.960, 636.171 455.350, 636.081 429.500 C 635.991 403.650, 635.495 379.575, 634.978 376 C 634.460 372.425, 633.360 364.775, 632.532 359 C 631.414 351.202, 631.155 343.225, 631.528 328 C 633.126 262.617, 632.666 243.206, 629.087 224.996 C 624.938 203.885, 619.082 187.317, 614.832 184.663 C 613.794 184.015, 613 182.354, 613 180.831 C 613 179.352, 612.293 177.436, 611.429 176.571 C 609.438 174.581, 609.286 174.597, 608.035 176.934 M 609.078 205.222 C 608.389 209.225, 606.186 220.600, 604.183 230.500 C 600.788 247.283, 600.546 249.683, 600.610 266 C 600.648 275.625, 601.437 290.234, 602.365 298.465 C 603.588 309.324, 603.910 318.103, 603.539 330.465 C 603.142 343.663, 601.649 452.802, 601.802 457.500 C 601.819 458.050, 601.905 477.311, 601.992 500.302 L 602.151 542.105 614.220 541.897 L 626.290 541.688 625.652 526.594 C 625.302 518.292, 624.542 509.250, 623.964 506.500 C 622.776 500.852, 622.911 458.451, 624.141 450.671 C 625.555 441.727, 626.007 422.727, 625.049 412.500 C 624.533 407, 622.765 393.275, 621.118 382 C 617.361 356.271, 617.018 352.595, 616.834 336 C 616.684 322.477, 617.338 306.824, 619.070 282.500 C 621.382 250.015, 619.352 212.262, 614.805 203.189 C 613.537 200.660, 612.012 198.444, 611.415 198.267 C 610.778 198.077, 609.813 200.950, 609.078 205.222 M 324.607 272.582 C 324.273 273.452, 324 275.702, 324 277.582 C 324 279.462, 323.562 281, 323.026 281 C 321.481 281, 319.260 286.085, 318.453 291.466 C 318.045 294.183, 316.355 300.027, 314.697 304.453 L 311.682 312.500 311.624 341 C 311.592 356.675, 311.747 375.800, 311.968 383.500 C 312.202 391.626, 311.869 400.647, 311.176 405 C 307.120 430.470, 306.969 433.146, 307.498 470.197 C 308.276 524.754, 309.189 539.798, 313.493 569 C 314.365 574.919, 314.129 591.425, 313.076 598.134 C 311.279 609.587, 310.845 615.311, 310.755 628.778 L 310.667 642.055 306.364 643.139 C 303.997 643.735, 301.577 644.804, 300.987 645.515 C 299.154 647.725, 301.009 651.766, 305.572 655.506 C 311.450 660.322, 312.565 664.478, 310.978 675.657 C 310.326 680.246, 310.077 686.362, 310.424 689.250 C 311.499 698.201, 318.299 710.072, 324.316 713.500 C 325.981 714.448, 325.966 714.908, 324.036 722.410 C 322.916 726.760, 322 731.148, 322 732.160 C 322 733.603, 321.230 734, 318.434 734 C 312.549 734, 311 735.400, 311 740.719 C 311 743.398, 311.890 747.207, 313.100 749.706 C 316.115 755.935, 315.373 757.653, 300.351 779.214 C 287.267 797.994, 286.734 803.314, 295.947 823.227 C 299.325 830.527, 303.434 838.180, 305.078 840.234 C 307.958 843.830, 308.007 844.059, 306.419 846.484 C 305.512 847.868, 303.866 849, 302.760 849 C 300.350 849, 289.216 853.752, 286.750 855.833 C 284.717 857.548, 284.399 863.258, 286.250 864.788 C 287.902 866.154, 298.225 868.760, 304.500 869.396 C 320.020 870.968, 355.917 872.006, 368.210 871.238 C 383.161 870.304, 386 869.179, 386 864.186 C 386 859.861, 377.870 853.388, 369.840 851.319 C 364.106 849.842, 362.886 849.139, 361.892 846.739 C 360.851 844.225, 360.999 843.598, 363.206 841.202 C 364.575 839.716, 367.417 835.575, 369.521 832 C 371.626 828.425, 374.668 823.799, 376.281 821.721 C 381.987 814.369, 384.251 804.849, 382.087 797.305 C 381.586 795.555, 377.756 788.843, 373.577 782.390 C 368.352 774.322, 365.201 768.197, 363.489 762.777 C 362.120 758.443, 361 754.490, 361 753.994 C 361 753.497, 362.125 751.966, 363.500 750.591 C 368.219 745.872, 365.344 736.860, 358.100 733.664 C 354.807 732.211, 354 731.341, 354 729.242 C 354 727.804, 353.272 723.727, 352.383 720.181 L 350.766 713.734 354.133 711.122 C 364.796 702.853, 365.880 699.402, 365.233 675.803 L 364.748 658.106 367.550 653.303 C 369.092 650.661, 370.998 648.020, 371.785 647.434 C 374.066 645.737, 372.822 642.709, 369.498 641.865 C 365.070 640.742, 360.980 640.175, 356.635 640.082 L 352.770 640 353.479 634.321 C 354.301 627.744, 354.336 604.352, 353.526 603.041 C 351.065 599.061, 349.980 563.318, 351.748 544.500 C 353.198 529.074, 352.506 487.337, 350.638 477.500 C 348.294 465.152, 347.063 442.607, 346.572 403 C 346.344 384.575, 345.842 367.925, 345.458 366 C 345.073 364.075, 344.812 352.936, 344.877 341.247 C 345.069 306.830, 341.452 288.967, 332.789 281.552 C 330.568 279.650, 328.972 277.510, 329.244 276.797 C 329.987 274.844, 328.260 271, 326.639 271 C 325.855 271, 324.941 271.712, 324.607 272.582 M 327.194 293.341 C 326.543 295.140, 325.574 301.763, 325.041 308.057 C 324.508 314.350, 323.295 322.875, 322.345 327 C 320.923 333.172, 320.694 337.954, 321.053 354 C 321.583 377.752, 321.583 421.078, 321.052 492 C 320.832 521.425, 320.932 547.300, 321.275 549.500 C 325.279 575.172, 325.387 580.081, 322.511 605.815 C 322.285 607.842, 321.819 616.362, 321.475 624.750 L 320.851 640 331.772 640 L 342.692 640 343.537 626.750 C 344.637 609.510, 344.439 604.277, 342.298 594 C 340.369 584.736, 340.206 576.993, 340.930 529 C 341.571 486.533, 340.074 444.184, 337.589 434.500 C 334.484 422.397, 333.807 418.030, 333.634 409 C 333.524 403.225, 333.944 391.525, 334.567 383 C 336.130 361.624, 336.114 329.698, 334.535 316.500 C 331.718 292.967, 329.668 286.499, 327.194 293.341 M 474.500 465.634 C 472.850 465.818, 466.191 466.495, 459.702 467.139 C 449.972 468.105, 448.005 468.570, 448.475 469.796 C 448.789 470.613, 449.448 475.156, 449.940 479.891 C 451.101 491.074, 454.040 498.716, 459.528 504.819 C 465.101 511.018, 468.281 512.349, 476.240 511.812 C 483.116 511.348, 488.197 509.309, 492.744 505.189 C 496.883 501.439, 497.656 499.605, 499.016 490.301 C 500.362 481.098, 499.126 467.330, 496.824 465.870 C 495.567 465.073, 480.923 464.918, 474.500 465.634 M 465.142 521.813 C 464.517 523.841, 463.892 526.823, 463.753 528.440 L 463.500 531.380 473.750 531.692 L 484 532.004 484.115 529.252 C 484.260 525.783, 484.066 523.095, 483.472 520.337 C 483.039 518.331, 482.396 518.172, 474.642 518.150 L 466.278 518.127 465.142 521.813 M 457 537.272 C 453.300 538.570, 452.272 540.964, 453.432 545.584 C 454.476 549.743, 459.169 551.245, 471.448 551.350 C 488.547 551.495, 495.040 548.782, 494.229 541.833 L 493.817 538.305 485.158 538.733 C 477.561 539.108, 472.790 538.643, 463 536.573 C 461.625 536.282, 458.925 536.597, 457 537.272 M 599.887 546.790 C 593.295 547.040, 591.964 547.410, 589.960 549.543 L 587.645 552.006 590.408 569.753 C 593.570 590.066, 594.064 591.692, 598.796 597.350 C 600.705 599.633, 602.728 602.513, 603.294 603.750 C 604.245 605.834, 604.968 606, 613.081 606 L 621.840 606 627.442 599.750 C 635.984 590.220, 637.991 585.216, 638.044 573.312 C 638.088 563.345, 639.443 557.377, 642.405 554.105 C 643.282 553.136, 644 551.140, 644 549.671 C 644 547.453, 643.534 546.980, 641.250 546.882 C 639.737 546.816, 638.237 546.792, 637.915 546.827 C 632.801 547.381, 620.845 547.506, 615 547.065 C 610.875 546.754, 604.074 546.630, 599.887 546.790 M 461.326 566.500 C 461.353 587.496, 453.892 616.709, 437.062 661.500 C 426.704 689.066, 424.649 696.899, 425.250 706.534 C 425.529 710.990, 426.210 715.506, 426.764 716.568 C 427.318 717.631, 428.814 720.975, 430.087 724 C 431.360 727.025, 432.987 730.210, 433.701 731.079 C 434.415 731.947, 435 733.030, 435 733.486 C 435 733.942, 437.870 739.081, 441.379 744.907 C 452.455 763.301, 456.528 772.678, 456.135 778.877 C 455.940 781.947, 456.129 782.198, 458.210 781.641 C 459.470 781.303, 467.025 781.020, 475 781.011 L 489.500 780.994 489.500 775.098 C 489.500 769.595, 489.874 768.645, 495.114 760.851 C 501.712 751.036, 505.577 743.946, 509.205 735 C 513.847 723.555, 514.426 720.769, 514.402 710 L 514.379 699.500 507.833 683.500 C 486.663 631.754, 483.831 621.598, 482.467 592.500 C 481.970 581.893, 483.022 565.746, 484.627 559.351 C 485.179 557.149, 485.033 557.117, 473.250 556.810 L 461.313 556.500 461.326 566.500 M 607.500 623.960 L 607.500 633 616.872 633 C 624.681 633, 626.056 632.772, 625.111 631.634 C 624.488 630.883, 623.136 626.945, 622.106 622.884 L 620.234 615.500 613.867 615.210 L 607.500 614.920 607.500 623.960 M 596.219 641.559 C 594.999 642.414, 594 643.774, 594 644.581 C 594 647.427, 599.106 648.213, 614.500 647.735 C 628.482 647.302, 635 646.084, 635 643.907 C 635 642.558, 631.868 642.149, 616.500 641.491 C 608.250 641.138, 600.811 640.659, 599.969 640.427 C 599.127 640.194, 597.440 640.704, 596.219 641.559 M 348 647.665 C 342.511 647.902, 321.170 649.712, 314.500 650.506 C 313.400 650.638, 311.846 650.802, 311.047 650.872 C 310.110 650.955, 310.913 652.351, 313.311 654.807 C 317.805 659.408, 319.210 663.558, 318.964 671.500 C 318.590 683.575, 318.637 685.621, 319.429 692 C 321.150 705.850, 328.065 711.599, 341.086 710.006 C 347.896 709.172, 350.735 706.778, 354.532 698.670 C 358.108 691.031, 359.039 684.844, 359.100 668.306 C 359.134 659.248, 360.818 651.964, 363.586 648.905 C 365.495 646.796, 366.441 646.871, 348 647.665 M 604.300 670.844 L 604.500 688.500 601.183 694.615 C 599.358 697.978, 594.963 704.278, 591.417 708.615 C 587.870 712.952, 583.688 718.083, 582.123 720.017 C 576.072 727.498, 572.029 738.151, 572.011 746.662 C 571.996 753.555, 574.431 765.924, 576.900 771.506 C 577.999 773.991, 581.382 780.082, 584.418 785.042 C 589.718 793.700, 594 804.644, 594 809.531 L 594 811.852 611.865 811.952 L 629.730 812.052 630.302 808.525 C 631.002 804.211, 638.697 788.295, 645.259 777.589 C 653.332 764.417, 654.842 759.006, 653.090 749.528 C 652.033 743.811, 651.869 743.438, 642.286 725 C 631.748 704.722, 627.833 691.784, 627.910 677.495 C 627.951 669.879, 629.368 660.791, 631.541 654.213 C 631.875 653.200, 628.992 652.954, 618.033 653.057 L 604.100 653.189 604.300 670.844 M 345.990 666.525 C 345.065 668.960, 345.545 686.609, 346.638 690.308 C 347.558 693.424, 351.324 692.004, 352.086 688.253 C 352.927 684.117, 351.242 666.997, 349.827 665.291 C 348.215 663.349, 347.056 663.722, 345.990 666.525 M 443.167 673.750 C 439.204 681.431, 438.060 708.695, 441.269 719 C 443.634 726.595, 444.504 727.774, 446.722 726.391 C 448.365 725.365, 448.476 723.325, 448.183 699.437 C 448.009 685.223, 447.645 673.235, 447.374 672.797 C 446.509 671.396, 444.100 671.942, 443.167 673.750 M 331.162 722.500 C 330.546 726.350, 329.831 730.532, 329.571 731.794 C 329.098 734.086, 329.109 734.088, 338.799 733.624 C 344.134 733.368, 348.565 733.124, 348.645 733.080 C 348.887 732.946, 347.357 726.817, 345.630 721 L 343.997 715.500 338.139 715.500 L 332.280 715.500 331.162 722.500 M 585.006 732.826 C 580.464 747.444, 580.817 757.215, 586.546 775.500 C 589.196 783.959, 594.023 792.688, 596.595 793.675 C 600.153 795.040, 600.146 792.256, 596.563 779.360 C 590.087 756.060, 588.266 737.373, 591.648 728.921 C 593.046 725.427, 593.084 724.667, 591.898 723.916 C 588.937 722.041, 587.967 723.294, 585.006 732.826 M 330 739.402 C 316.680 740.485, 316.496 740.533, 316.208 743.001 C 316.047 744.376, 316.577 746.401, 317.387 747.501 C 318.767 749.376, 319.902 749.489, 335.679 749.315 C 344.931 749.213, 354.300 748.733, 356.500 748.248 C 360.257 747.420, 360.490 747.160, 360.330 743.978 C 360.010 737.587, 357.319 737.181, 330 739.402 M 351.775 754.558 C 351.469 754.865, 344.963 755.122, 337.318 755.129 L 323.419 755.142 321.604 760.251 C 319.535 766.077, 316.942 770.313, 308.821 781.130 C 301.579 790.776, 298.870 795.978, 298.257 801.409 C 297.201 810.779, 302.724 825.166, 310.466 833.214 C 312.959 835.806, 314.999 838.281, 314.999 838.714 C 314.998 839.146, 322.086 839.226, 330.749 838.892 C 346.664 838.277, 347.751 838.346, 351.683 840.224 C 354.861 841.741, 356.515 840.708, 359.545 835.311 C 361.031 832.665, 364.165 827.575, 366.510 824 C 372.583 814.742, 373.706 812.203, 374.485 805.967 C 375.157 800.584, 375.064 800.288, 371.021 794.968 C 368.735 791.960, 364.649 784.997, 361.941 779.493 C 357.799 771.078, 356.911 768.253, 356.361 761.743 C 355.825 755.405, 355.400 754, 354.020 754 C 353.092 754, 352.082 754.251, 351.775 754.558 M 324.814 768.939 C 321.581 771.492, 312.710 789.080, 313.550 791.271 C 315.289 795.802, 320.994 790.734, 326.465 779.797 C 330.240 772.251, 330.880 768.552, 328.564 767.663 C 327.774 767.360, 326.086 767.934, 324.814 768.939 M 453.387 787.948 C 449.054 789.766, 441.155 799.018, 439.398 804.332 C 437.460 810.192, 434.223 815.699, 429.345 821.430 C 425.792 825.605, 425.217 827.485, 427.255 828.268 C 428.590 828.780, 429.672 828.715, 448.754 826.990 C 455.494 826.381, 474.751 825.833, 491.547 825.774 C 513.003 825.697, 521.962 825.343, 521.671 824.582 C 521.004 822.838, 518.196 812.890, 516.954 807.872 C 515.528 802.113, 510.915 797.203, 502.083 792.049 L 495.500 788.206 475.500 787.634 C 464.500 787.319, 454.549 787.460, 453.387 787.948 M 595.818 818.024 C 594.893 818.574, 592.962 821.587, 591.528 824.719 C 590.094 827.852, 587.812 831.869, 586.456 833.646 L 583.993 836.876 588.246 837.399 C 590.586 837.686, 597.225 838.182, 603 838.502 C 614.892 839.160, 620.546 840.373, 621.338 842.438 C 622.589 845.699, 619.093 846.506, 604.558 846.309 C 596.792 846.204, 589.102 845.872, 587.469 845.570 C 585.836 845.269, 582.406 844.740, 579.847 844.395 C 574.622 843.691, 573.748 844.496, 572.496 851.170 L 571.814 854.804 577.157 856.320 C 582.640 857.875, 594.290 859.444, 608.603 860.554 C 617.534 861.246, 654.729 858.476, 659.263 856.780 C 666.142 854.207, 662.397 845.072, 651.964 838.979 C 647.404 836.316, 643.470 832.838, 639.062 827.574 C 635.574 823.408, 632.446 819.996, 632.110 819.991 C 631.775 819.987, 626.325 819.525, 620 818.966 C 613.675 818.407, 606.025 817.741, 603 817.487 C 599.975 817.232, 596.743 817.474, 595.818 818.024 M 317 847 L 313.500 848.916 327 848.992 C 334.425 849.034, 344.014 849.299, 348.309 849.579 C 355.765 850.067, 356.072 850.003, 355.095 848.177 C 353.689 845.551, 349.959 844.993, 334.125 845.042 C 322.635 845.077, 319.952 845.384, 317 847 M 296.373 856.367 C 291.488 858.680, 289.256 860.589, 290.261 861.595 C 292.245 863.579, 374.834 865.457, 377.860 863.586 C 379.848 862.358, 377.832 860.130, 373.168 858.402 C 369.311 856.972, 363.200 856.547, 338 855.956 C 321.225 855.562, 306.150 854.948, 304.500 854.590 C 302.365 854.127, 300.021 854.639, 296.373 856.367" fill-rule="evenodd" style="fill: inherit;"/>
    </g>
</svg>
