<svg xmlns="http://www.w3.org/2000/svg" xmlns:xlink="http://www.w3.org/1999/xlink" preserveAspectRatio="xMidYMid meet" version="1.0" viewBox="467.2 210.4 372.7 364.1" zoomAndPan="magnify" style="fill: rgb(90, 24, 29);" original_string_length="6852" width="287.46537104297636px" height="280.67073500014243px">
    <g>
        <g id="__id2_s0yd6b69d">
            <path d="M666.8556,223.03796L666.9487,223.038Q667.55444,223.03865,667.97437,223.04182L667.9677,223.04253Q668.4189,223.13058,668.64417,223.1777Q667.88806,223.1379,667.12964,223.10423Q667.0034,223.0982,666.3706,223.07205Q666.11743,223.06181,665.86395,223.05222L665.6104,223.0428L665.60376,223.0435Q666.2291,223.03778,666.8556,223.03796 M640.25366,220.1476L641.2336,220.16628Q645.6485,220.2329,651.90063,220.75461Q643.5016,221.53789,635.3131,223.2169Q630.89215,224.03453,625.505,225.77342Q622.4024,226.34294,616.8635,227.69144Q616.2465,227.83377,613.1793,228.65405L610.7317,229.34094Q625.4121,223.60265,640.25366,220.1476 M596.29236,237.35156L594.8033,238.03763Q588.8068,240.81313,582.80237,243.92178Q577.81885,246.50763,573.2323,249.14886Q577.6281,246.12405,583.48376,242.62785Q589.73535,239.77728,596.29236,237.35156 M682.4734,223.77017L682.4734,223.77087Q698.01636,225.38739,708.13477,228.16815Q719.71216,231.22012,729.6022,235.70853Q754.00507,246.85158,771.0465,263.18152Q753.94714,248.50229,731.041,237.91626Q719.8788,233.16777,717.5161,232.53531Q712.9264,230.93994,708.2284,229.60918Q698.39667,226.75854,686.09,224.89401Q684.2814,224.30872,682.4734,223.77017 M559.256,255.87073L558.1501,256.76816Q553.1546,260.78143,546.40063,267.19205Q543.35974,269.48422,536.7393,275.22736Q532.99023,278.5406,529.4225,282.01266Q519.3178,291.97626,512.37555,300.7954Q516.50775,294.77448,523.1368,287.02545Q531.0733,278.26413,532.9041,276.72916Q539.7198,270.1366,547.3487,264.26764Q557.0603,257.0895,559.256,255.87073 M684.2182,214.91728L685.1168,214.91963Q699.9811,214.93387,714.91406,217.90962Q722.371,219.02795,738.40656,224.92139Q761.1725,234.06287,780.0263,251.08333Q798.1437,266.50214,812.9657,294.54416Q823.11414,314.58212,825.21234,341.31635Q803.7571,290.3728,771.2623,259.10873Q747.9601,238.59265,718.40985,228.00195Q707.14294,224.21202,693.88416,222.19853Q681.73706,220.20967,667.05096,220.06764Q659.13696,218.5952,650.97864,217.94006Q667.84937,214.93263,684.2182,214.91728 M823.36755,344.42242L823.5525,344.938Q824.39,347.25793,825.4628,350.61075L825.45447,350.61145Q825.4413,352.05,825.397,353.49786Q824.96313,351.21927,824.4536,348.9505Q824.0217,347.06073,823.9253,346.68408Q823.46204,344.79834,823.35925,344.42242L823.36755,344.42245 M627.14966,220.4459L623.8218,221.4537Q610.62427,225.59073,598.71674,231.21895Q559.24963,251.46935,560.21497,251.86142Q537.92035,265.767,521.29816,284.78653Q511.32956,296.19757,503.4212,309.42737Q501.87067,310.87598,486.34946,342.6078Q474.91696,367.1343,471.9628,390.63257Q469.6146,359.5678,478.62112,327.7421Q483.09128,313.0033,489.9423,300.20468Q495.21973,289.19016,509.09448,272.9181Q533.94556,247.07962,561.54675,236.21481Q598.6299,221.45357,627.14966,220.4459 M478.7791,372.71997L478.51102,374.66168Q478.0017,378.56506,477.70602,382.6283Q477.55814,384.65985,477.4634,386.73135Q477.38293,387.7422,477.2985,393.03558Q477.3041,403.67426,478.12918,411.97314Q478.67783,417.99854,479.58707,424.29877Q479.758,425.8308,481.1538,433.90417Q483.4321,446.55127,486.00345,454.7071Q481.57034,443.528,478.18918,430.37048Q476.54547,423.90854,475.28616,417.2393Q474.9104,415.59775,473.62384,407.14874Q474.05524,390.51245,478.7791,372.71997 M527.03375,288.68097L524.97253,291.35846Q505.5658,317.2478,495.51773,343.85968Q493.63992,348.984,492.10663,354.15503L490.6561,359.33002Q489.28998,364.5128,488.24805,369.69574Q485.14056,385.2847,484.7412,400.40332Q483.93524,430.61823,493.7967,458.71738Q504.66388,488.21677,522.2436,509.9079Q498.61923,483.15796,489.8077,457.636Q485.4294,445.06375,482.59662,426.68817Q479.76688,408.33478,480.0066,391.77707Q480.19952,378.24548,482.76727,366.04724Q484.45996,357.23108,490.73035,340.71027Q503.39117,313.78528,527.03375,288.68097 M474.26587,424.8381L475.65515,430.56607Q478.5622,441.9099,482.4923,452.3603Q484.45724,457.5854,486.67722,462.58746Q487.62817,465.22784,493.90967,477.09204Q505.32367,497.17688,520.6271,513.3948Q511.0511,504.69025,503.34155,494.9424Q498.20496,488.4545,493.93542,481.6284Q488.91177,473.2731,487.80167,470.79614Q481.7514,458.8991,478.27417,446.308Q477.51617,444.25787,475.43854,433.54236Q474.70496,429.22903,474.26587,424.8381 M700.92554,230.56328L704.2026,231.38249Q741.4622,241.74948,766.9552,263.51816Q798.3602,290.45178,812.8055,322.9528Q821.18146,340.5874,824.32166,367.1114Q823.16547,379.2085,816.271,401.38638L811.14874,415.61786L800.33746,440.40814Q798.51404,444.66376,798.45166,446.09296Q805.19165,436.38483,815.20715,412.81027Q821.65796,397.23065,824.8384,383.48898Q824.7527,387.09882,824.4607,390.73053Q822.2715,416.70294,811.25586,441.63657Q799.0495,469.32614,779.066,491.2231Q742.509,531.49304,682.20306,548.07947Q711.36426,536.01953,730.38257,521.3209Q753.17773,503.34518,763.6852,488.73267Q796.2409,444.15134,799.8424,396.21448Q801.51495,370.14536,796.0089,346.49887Q788.24194,316.1147,776.0742,297.73734Q742.19464,247.40372,700.92554,230.56328 M660.0683,225.77905L662.07983,225.79048Q712.552,224.63329,762.5979,283.3461Q802.39417,333.56442,795.9786,401.3631Q786.93005,467.1856,740.56525,509.09735Q683.4662,556.4934,625.64044,555.49536Q596.50433,556.28723,563.6213,541.6929Q552.8003,540.0282,526.3265,510.4269Q482.2995,455.98462,488.049,390.5133Q496.93967,319.44952,547.71045,269.97314Q612.094,222.76431,660.0683,225.77905 M828.4558,361.34375L829.00977,363.72534Q839.90955,406.99554,819.1608,456.44388Q810.0398,478.87686,788.84485,505.51074Q772.3211,525.29877,751.5078,539.63525Q706.76447,569.50574,658.4684,571.4467Q612.9874,574.1949,567.16724,546.45917Q610.56995,565.00574,660.25146,555.70215Q713.1376,546.92163,751.0681,519.68933Q794.00586,487.96243,812.20074,447.2232Q821.16455,428.38556,824.9419,409.35907Q826.8419,399.87012,827.51306,390.4802Q828.2775,379.91138,827.4999,369.52887Q828.08813,365.41278,828.4558,361.34375 M684.3497,211.94907L681.6644,211.96977Q658.9739,212.56102,638.7239,217.4129Q630.95447,217.17763,616.4081,218.69023Q603.4259,220.22684,589.9207,223.60786Q551.46344,234.09908,528.99646,251.45834Q476.24945,289.22446,468.78607,365.79572Q467.22726,371.7567,471.27954,424.15768Q471.60385,431.01596,475.2856,446.22797Q483.44162,476.91302,507.34912,504.39578Q523.817,526.2919,585.0161,559.1279Q617.9201,574.48926,654.9419,574.15796Q719.0858,573.3169,773.1868,526.0608Q799.72375,501.81094,817.7382,466.7797Q832.8529,436.96518,834.9696,408.7616Q836.18823,394.5855,834.68317,380.47803Q833.1821,366.37024,828.94495,352.34045Q828.8647,331.52585,825.64233,319.90817Q817.7864,290.27008,803.3868,271.7759Q753.45386,210.40495,684.3497,211.94907" style="fill: inherit;"/>
        </g>
    </g>
</svg>